<?xml version="1.0" encoding="iso-8859-1"?>
<!-- Uploaded to: SVG Repo, www.svgrepo.com, Generator: SVG Repo Mixer Tools -->
<svg height="800px" width="800px" version="1.1" id="Layer_1" xmlns="http://www.w3.org/2000/svg" xmlns:xlink="http://www.w3.org/1999/xlink" 
	 viewBox="0 0 512 512" xml:space="preserve">
<g>
	<polygon style="fill:#F95428;" points="459.935,432.32 459.935,502.283 52.064,502.283 52.064,432.32 79.932,432.32 
		115.587,432.32 158.628,432.32 353.371,432.32 396.411,432.32 432.079,432.32 	"/>
	<polygon style="fill:#F95428;" points="459.935,9.717 459.935,79.693 432.079,79.693 396.411,79.693 115.587,79.693 79.932,79.693 
		52.064,79.693 52.064,9.717 	"/>
</g>
<g>
	<polygon style="fill:#E54728;" points="116.134,9.717 116.134,79.693 111.759,79.693 106.155,79.693 62.042,79.693 56.441,79.693 
		52.064,79.693 52.064,9.717 	"/>
	<polygon style="fill:#E54728;" points="116.134,434.807 116.134,504.783 111.759,504.783 106.155,504.783 62.042,504.783 
		56.441,504.783 52.064,504.783 52.064,434.807 	"/>
</g>
<path style="fill:#F7B239;" d="M353.371,432.32H158.628c25.251-30.499,59.559-49.272,97.378-49.272S328.133,401.821,353.371,432.32z
	"/>
<g>
	<path style="fill:#2BA5F7;" d="M256.006,256c77.542,0,140.405,78.942,140.405,176.32h-43.04
		c-25.239-30.499-59.546-49.272-97.365-49.272s-72.127,18.773-97.378,49.272h-43.04C115.587,334.942,178.45,256,256.006,256z"/>
	<path style="fill:#2BA5F7;" d="M327.718,179.313H140.152c-15.496-28.348-24.565-62.656-24.565-99.62h280.824
		c0,36.964-9.069,71.272-24.565,99.62H327.718z"/>
</g>
<g>
	<path style="fill:#2197D8;" d="M256.006,256c-48.106,0-90.563-30.369-115.854-76.687c-15.496-28.348-24.565-62.656-24.565-99.62
		h76.273c0,36.964,4.146,71.272,11.22,99.62C214.637,225.631,234.032,256,256.006,256z"/>
	<path style="fill:#2197D8;" d="M256.006,256c-32.331,0-59.063,65.713-63.499,151.188c-0.426,8.209-33.879,16.599-33.879,25.132
		h-43.04C115.587,334.942,178.45,256,256.006,256z"/>
</g>
<path style="fill:#F7B239;" d="M327.718,179.313h44.129C346.556,225.631,304.099,256,256.006,256
	c-48.106,0-90.563-30.369-115.854-76.687H327.718z"/>
<path style="fill:#E09B2D;" d="M203.08,179.313C214.637,225.631,234.032,256,256.006,256c-48.106,0-90.563-30.369-115.854-76.687
	H203.08z"/>
<path style="fill:#333333;" d="M459.935,89.41c5.368,0,9.717-4.351,9.717-9.717V9.717c0-5.366-4.349-9.717-9.717-9.717H52.064
	c-5.368,0-9.717,4.351-9.717,9.717v69.976c0,5.366,4.349,9.717,9.717,9.717h18.152v333.193H52.064c-5.368,0-9.717,4.351-9.717,9.717
	v69.963c0,5.366,4.349,9.717,9.717,9.717h407.873c5.368,0,9.717-4.351,9.717-9.717V432.32c0-5.366-4.349-9.717-9.717-9.717h-18.139
	V89.41H459.935z M61.781,19.434h388.439v50.542H61.781V19.434z M357.856,422.603c-27.791-31.81-63.793-49.272-101.851-49.272
	c-38.052,0-74.06,17.461-101.862,49.272h-28.611c3.962-87.359,60.964-156.886,130.473-156.886c69.503,0,126.5,69.526,130.46,156.886
	H357.856z M330.566,422.603H181.441c21.791-19.371,47.657-29.838,74.565-29.838C282.918,392.765,308.781,403.232,330.566,422.603z
	 M365.973,169.596H146.025c-12.194-24.12-19.183-51.565-20.477-80.185h260.904C385.156,118.029,378.169,145.473,365.973,169.596z
	 M354.502,189.03c-24.71,36.129-60.578,57.253-98.496,57.253c-37.926,0-73.798-21.122-98.509-57.253H354.502z M89.648,89.41h16.448
	c1.407,33.905,10.145,66.418,25.527,94.559c18.665,34.182,45.604,59.147,76.312,71.974c-21.977,9.144-42.065,24.604-58.823,45.646
	c-26.044,32.704-41.155,75.366-43.036,121.013H89.648V89.41z M450.218,492.566H61.781v-50.529h388.439v50.529H450.218z
	 M422.362,422.603h-16.439c-1.881-45.646-16.992-88.308-43.035-121.013c-16.757-21.043-36.843-36.503-58.818-45.646
	c30.702-12.828,57.641-37.792,76.304-71.97c15.384-28.145,24.122-60.658,25.53-94.563h16.461v333.191H422.362z"/>
<g>
	<path style="fill:#FFFFFF;" d="M286.275,222.356c-3.796,0-7.401-2.238-8.963-5.956c-2.078-4.948,0.247-10.643,5.195-12.722
		c13.196-5.543,25.684-15.402,36.118-28.511c0.459-0.577,0.907-1.141,1.355-1.731c6.453-8.412,11.964-17.824,16.406-28.011
		c2.147-4.918,7.872-7.165,12.792-5.023c4.919,2.146,7.167,7.872,5.023,12.792c-5.072,11.632-11.388,22.409-18.775,32.035
		c-0.509,0.67-1.044,1.347-1.594,2.039c-12.637,15.879-27.372,27.427-43.797,34.327
		C288.806,222.111,287.531,222.356,286.275,222.356z"/>
	<path style="fill:#FFFFFF;" d="M355.51,404.88c-4.514,0-8.559-3.161-9.507-7.756c-4.719-22.877-14.184-43.724-27.378-60.289
		c-4.887-6.133-10.18-11.539-15.733-16.064c-4.159-3.391-4.782-9.512-1.391-13.671c3.392-4.159,9.51-4.782,13.673-1.391
		c6.624,5.4,12.9,11.799,18.652,19.018c15.087,18.943,25.88,42.619,31.211,68.472c1.083,5.256-2.298,10.396-7.555,11.479
		C356.821,404.815,356.161,404.88,355.51,404.88z"/>
	<path style="fill:#FFFFFF;" d="M432.896,64.138c-5.368,0-9.717-4.351-9.717-9.717V34.988c0-5.366,4.349-9.717,9.717-9.717
		c5.368,0,9.717,4.351,9.717,9.717v19.433C442.613,59.787,438.263,64.138,432.896,64.138z"/>
	<path style="fill:#FFFFFF;" d="M432.896,486.736c-5.368,0-9.717-4.351-9.717-9.717v-19.434c0-5.366,4.349-9.717,9.717-9.717
		c5.368,0,9.717,4.351,9.717,9.717v19.434C442.613,482.385,438.263,486.736,432.896,486.736z"/>
	<circle style="fill:#FFFFFF;" cx="355.515" cy="116.838" r="9.717"/>
</g>
</svg>